<svg width="12" height="18" viewBox="0 0 12 18" fill="none" xmlns="http://www.w3.org/2000/svg">
<path d="M1.83344 0.179853L0.931767 1.08159C0.811358 1.20175 0.751343 1.34016 0.751343 1.49664C0.751343 1.65275 0.811358 1.7911 0.931767 1.91125L8.02004 8.9999L0.931956 16.0882C0.811547 16.2085 0.751532 16.3468 0.751532 16.5031C0.751532 16.6595 0.811547 16.7978 0.931956 16.918L1.8337 17.8196C1.95385 17.94 2.0922 18 2.24856 18C2.40479 18 2.54314 17.9398 2.66329 17.8196L11.0683 9.41477C11.1885 9.29461 11.2486 9.1562 11.2486 8.9999C11.2486 8.84361 11.1885 8.70545 11.0683 8.58536L2.66329 0.179853C2.54307 0.0596981 2.40472 0 2.24856 0C2.0922 0 1.95385 0.0596981 1.83344 0.179853Z" fill="#044700"/>
</svg>
