<svg width="12" height="18" viewBox="0 0 12 18" fill="none" xmlns="http://www.w3.org/2000/svg">
<path d="M10.1666 17.8201L11.0682 16.9184C11.1886 16.7983 11.2487 16.6598 11.2487 16.5034C11.2487 16.3473 11.1886 16.2089 11.0682 16.0887L3.97996 9.0001L11.068 1.91176C11.1885 1.79154 11.2485 1.65319 11.2485 1.4969C11.2485 1.34054 11.1885 1.20219 11.068 1.08204L10.1663 0.180424C10.0461 0.060015 9.9078 0 9.75144 0C9.59521 0 9.45686 0.0602045 9.33671 0.180424L0.931712 8.58523C0.811492 8.70539 0.751414 8.8438 0.751414 9.0001C0.751414 9.15639 0.811492 9.29455 0.931712 9.41464L9.33671 17.8201C9.45693 17.9403 9.59528 18 9.75144 18C9.9078 18 10.0461 17.9403 10.1666 17.8201Z" fill="#8FA29A"/>
</svg>
