<svg width="10" height="6" viewBox="0 0 10 6" fill="none" xmlns="http://www.w3.org/2000/svg">
<path d="M9.90008 0.685152L9.39911 0.18422C9.33236 0.117326 9.25546 0.0839844 9.16853 0.0839844C9.08181 0.0839844 9.00494 0.117326 8.93819 0.18422L5.00005 4.12215L1.06209 0.184325C0.995301 0.117431 0.918439 0.0840896 0.831611 0.0840896C0.744747 0.0840896 0.667886 0.117431 0.601132 0.184325L0.100235 0.685292C0.0333416 0.752045 0 0.828907 0 0.91577C0 1.00256 0.0334469 1.07943 0.100235 1.14618L4.76957 5.81562C4.83633 5.88241 4.91322 5.91579 5.00005 5.91579C5.08688 5.91579 5.16364 5.88241 5.23036 5.81562L9.90008 1.14618C9.96683 1.07939 10 1.00253 10 0.91577C10 0.828907 9.96683 0.752045 9.90008 0.685152Z" fill="#044700"/>
</svg>
