<svg width="24" height="24" viewBox="0 0 24 24" fill="none" xmlns="http://www.w3.org/2000/svg">
<path d="M23.9994 1.09102L23.999 6.54633C23.999 7.14884 23.5107 7.63694 22.9084 7.63694C22.3059 7.63694 21.818 7.14884 21.818 6.54612V3.72663L15.4804 10.0697C15.2671 10.2832 14.9876 10.3892 14.7084 10.3892C14.4295 10.3892 14.1506 10.283 13.9375 10.0699C13.5115 9.64429 13.5111 8.95372 13.9369 8.52774L20.2764 2.18204H17.4576C16.855 2.18204 16.3667 1.69353 16.3667 1.09082C16.3667 0.488507 16.8552 0 17.4576 0H22.9084C23.1979 0 23.4751 0.115027 23.6799 0.319951C23.8846 0.524466 23.9994 0.802329 23.9994 1.09102ZM22.9086 16.3624C22.3059 16.3624 21.818 16.8516 21.818 17.4537V20.2732L15.5867 14.095C15.1603 13.669 14.4405 13.6686 14.0145 14.0946C13.5883 14.52 13.5736 15.211 13.9992 15.6367L20.1675 21.818H17.3456H17.3433C16.7408 21.818 16.2519 22.3061 16.2517 22.9088C16.2515 23.5107 16.739 23.9994 17.3417 23.9994L22.7917 24C23.0814 24 23.4173 23.885 23.6214 23.6805C23.8259 23.4759 23.9996 23.1985 23.9996 22.9094V17.4535C23.9994 16.8514 23.5109 16.3624 22.9086 16.3624ZM8.41251 14.047L2.18184 20.2736V17.4535C2.18184 16.851 1.70314 16.3637 1.10083 16.3637H1.10532C0.502809 16.3637 0.0167535 16.8516 0.0167535 17.4535L0.0171621 22.9086C0.0171621 23.1981 0.132598 23.4755 0.337113 23.68C0.542037 23.8848 0.8199 23.9996 1.1092 23.9996H6.56022C7.16274 23.9996 7.65104 23.5111 7.65104 22.9088C7.65104 22.3059 7.16253 21.8176 6.56022 21.8176H3.74216L9.96507 15.5889C10.3915 15.1631 10.3859 14.4715 9.95996 14.0462C9.53397 13.6208 8.8387 13.6212 8.41251 14.047ZM3.72296 2.28031H6.54143C7.14394 2.28031 7.63204 1.79242 7.63204 1.19011C7.63204 0.587394 7.14373 0.0988865 6.54143 0.0988865L1.09102 0.098478H1.09082C0.801308 0.098478 0.524262 0.212892 0.319338 0.417407C0.115027 0.621923 0 0.899173 0 1.18909L0.000612889 6.6446C0.000612889 7.2463 0.488916 7.73542 1.09123 7.73542C1.69374 7.73542 2.18184 7.2463 2.18184 6.6446V3.8247L8.46971 10.1177C8.68281 10.331 8.96231 10.4376 9.2416 10.4376C9.52028 10.4376 9.79957 10.3314 10.0125 10.1183C10.4387 9.69272 10.4393 9.00153 10.0131 8.57514L3.72296 2.28031Z" fill="black" fill-opacity="0.25"/>
</svg>
