<svg width="28" height="28" viewBox="0 0 28 28" fill="none" xmlns="http://www.w3.org/2000/svg">
<path fill-rule="evenodd" clip-rule="evenodd" d="M26.8336 0H1.16725C0.522375 0 0 0.522375 0 1.16638V26.8336C0 27.4776 0.522375 28 1.16725 28H14.875V17.5H11.375V13.125H14.875V9.625C14.875 6.00863 17.1649 4.22887 20.391 4.22887C21.9363 4.22887 23.2645 4.34438 23.6512 4.39512V8.17513L21.4139 8.176C19.6595 8.176 19.25 9.00987 19.25 10.2331V13.125H23.625L22.75 17.5H19.25L19.32 28H26.8336C27.4776 28 28 27.4776 28 26.8336V1.16638C28 0.522375 27.4776 0 26.8336 0Z" fill="#044700"/>
</svg>
