<svg width="16" height="16" viewBox="0 0 16 16" fill="none" xmlns="http://www.w3.org/2000/svg">
<path d="M9.64835 16H5.88364C5.69719 15.9976 5.51906 15.9224 5.3872 15.7906C5.25535 15.6587 5.1802 15.4806 5.17776 15.2941V8L0.142466 1.12C0.0628812 1.01653 0.0144182 0.892535 0.00275053 0.762523C-0.00891719 0.632512 0.0166931 0.501866 0.0765833 0.385882C0.136582 0.270231 0.227029 0.173164 0.33816 0.105159C0.449291 0.0371529 0.576886 0.000791718 0.707172 0H14.8248C14.9551 0.000791718 15.0827 0.0371529 15.1938 0.105159C15.305 0.173164 15.3954 0.270231 15.4554 0.385882C15.5153 0.501866 15.5409 0.632512 15.5292 0.762523C15.5176 0.892535 15.4691 1.01653 15.3895 1.12L10.3542 8V15.2941C10.3518 15.4806 10.2766 15.6587 10.1448 15.7906C10.0129 15.9224 9.8348 15.9976 9.64835 16ZM6.58952 14.5882H8.94247V7.76471C8.94172 7.61474 8.99145 7.46887 9.08364 7.35059L13.4131 1.41176H2.11894L6.46717 7.35059C6.55937 7.46887 6.60909 7.61474 6.60835 7.76471L6.58952 14.5882Z" fill="#044700"/>
</svg>
