<svg id="Layer_1" data-name="Layer 1" xmlns="http://www.w3.org/2000/svg" viewBox="0 0 300 300"><path d="M178.52,158.65a132.54,132.54,0,0,1,16-11.53c21.13-12.21,40.19-22.66,58.26-31.94,17.44-9,28.92-18.31,37.24-30.3,3.1-4.48,3.18-8.17.24-11.28-6.4-6.75-13.55-13.19-24.28-11.51-3.87.6-6.48-.81-8-4.33-.39-.92-.71-1.89-1-2.83a17.58,17.58,0,0,0-2.14-4.83c-.26-.37-.54-.75-.81-1.15-2-2.79-4.21-6-6.85-6.82q-2-.66-4-1.29c-7.55-2.38-15.37-4.84-21.81-10.33a2.21,2.21,0,0,0-.6-.17,3,3,0,0,1-1.2-.41c-.63-.44-1.28-.85-1.93-1.27a20.72,20.72,0,0,1-5.07-4A22.52,22.52,0,0,1,210,20.09,21.76,21.76,0,0,0,207.63,16c-2.21-2.83-4.27-4.47-5.82-4.6-6-.52-11.71-3.13-17.38-8-6.89-5.91-13-3.07-18.66.36a39.07,39.07,0,0,0-6.27,5.13c-.78.73-1.56,1.47-2.36,2.17s-1.52,1.44-2.24,2.17a25.79,25.79,0,0,1-4.51,3.9A14.92,14.92,0,0,0,143,29.75c-.58,10.07-1.13,20.32-1.66,30.24l-.63,11.63c0,.83-.09,1.65-.13,2.48l-.05,1.1a.75.75,0,0,1-.53.68.74.74,0,0,1-.82-.26,38.52,38.52,0,0,1-4.37-8.22l-.55-1.29q-2.52-5.8-5-11.62c-4.15-9.74-8.44-19.8-13.14-29.46-4.48-9.22-9.45-11.44-20.43-9.15a46.22,46.22,0,0,1-7.76.74c-1.54.06-3.13.12-4.67.27-.5.06-1,.09-1.56.12-1.8.11-3.67.22-4.64,1.07-.82.72-1.65,1.43-2.49,2.15-4.64,4-9.44,8.13-12.72,13.09-2.91,4.39-4.63,9.75-6.3,14.94-.49,1.53-1,3.05-1.5,4.55-1.84,5.31-2.27,9.53,1.62,12.85a.75.75,0,0,1-.15,1.24c-2.15,1.08-4.3,2-6.39,3-4.58,2.06-8.91,4-12.53,6.81-5.92,4.62-9.45,10.71-9.94,17.15-.54,7-4.15,11.5-8,15.29-4.38,4.33-7.5,10.2-10.32,15.84-1,2.08-1.08,5.7-.08,8.41,5.44,14.84,15.61,23.68,30.23,26.28a122,122,0,0,0,38.06.33,166,166,0,0,1,22.25-1.51A154.73,154.73,0,0,1,126,160.85c10.72,1.92,18.21,6.76,21.69,14,2.68,5.59,5.94,14.14,6.21,23.17.53,17.75.44,35.8.37,53.26,0,7.43-.07,15.11-.06,22.66,0,7.72.13,14.06.36,19.94.15,3.73,2.63,6.07,6.46,6.12h.08c3.69,0,4.53-3.67,4.71-5.87a60.23,60.23,0,0,0,0-7.88c-.26-4.92-.56-9.85-.86-14.77-.38-6.44-.78-13.09-1.1-19.64-1.24-25.31-2.07-50,1.38-74.45.91-6.41,3.49-11.18,7.91-14.57C175,161.45,176.76,160.05,178.52,158.65Zm100-62.76c-8.23,8.17-18.48,13.33-28.4,18.32-3.61,1.82-7.35,3.7-10.92,5.7a.84.84,0,0,1-.37.09.75.75,0,0,1-.64-.36l-1-1.56a.74.74,0,0,1-.09-.56.78.78,0,0,1,.34-.47l39.1-24a.75.75,0,0,1,1,.25l1,1.65A.74.74,0,0,1,278.47,95.89ZM275,65.23a.77.77,0,0,1,.42.63.72.72,0,0,1-.34.67c-1.39.92-2.78,1.8-4.15,2.68-3.05,2-5.93,3.81-8.76,5.82-5,3.58-9.2,6.6-13.13,9.5l-2.26,1.63c-3.82,2.75-7.43,5.35-10.21,9.17a1.35,1.35,0,0,0-.24.43.16.16,0,0,0,0,.15.89.89,0,0,0,.56.26,2.53,2.53,0,0,0,1.34-.7l.46-.34c1.47-1,3-2.17,5.06-3.7l3.07-2.36c2.27-1.75,4.62-3.56,7-5.26,5.84-4.17,11.83-8.26,17.63-12.21,2.12-1.45,4.75-3.25,7.79-3.25h0c3.45,0,6.22,2.32,7.93,4.26,2,2.3,3,4.58,3,6.78a9.08,9.08,0,0,1-3.43,6.47,26.31,26.31,0,0,1-5.65,3.39l-.44.22c-9.94,4.89-19.47,10.92-28.68,16.76-7.55,4.78-15.37,9.73-22.82,15-5.95,4.18-11.82,8.64-17.45,13.26a.74.74,0,0,1-1,0,.75.75,0,0,1-.08-1c9.38-12.58,21.82-22.4,33.76-31.39,11-8.25,22-16.09,31.25-22.67v0a7.73,7.73,0,0,0-3.16.92,111.48,111.48,0,0,0-13.07,9.13l-1.11.85c-2.44,1.88-5,3.71-7.15,5.27-.79.56-1.56,1.21-2.38,1.88a26.63,26.63,0,0,1-4.67,3.34c-9.14,6.74-18.59,13.72-26.67,22-2.19,2.25-4.34,4.63-6.41,6.94-4.46,5-9.07,10.08-14.52,14.15a.75.75,0,0,1-1-.08l-1.14-1.21c-.52-.52-.51-.54,2.13-3.38l3.53-3.77.87-.93,10.49-11.32q11.27-12.17,22.56-24.3h0a.7.7,0,0,0-.14-.24.77.77,0,0,0-.41-.28c-.22,0-.55.36-.78.61l-.21.22c-5.24,5.36-10.64,10.72-15.86,15.91l-2.42,2.42c-4.51,4.49-9.8,9.85-14.84,15.57-1.63,1.84-12.09,14.56-12.93,16.4a.71.71,0,0,1-.15.48.76.76,0,0,1-.6.29.74.74,0,0,1-.45-.15h0l-1-.78a.75.75,0,0,1-.2-1l.63-1.15c.44-.83.91-1.69,1.44-2.5,19-28.95,37.68-50.3,58.75-67.21a93.76,93.76,0,0,0,9.31-8.88C258.71,63.68,268.65,62.12,275,65.23ZM253,52.62l.1.15c5.1,7.6,5.51,8.22-.25,14.21a172.58,172.58,0,0,1-14.63,13.68c-18,14.87-34.1,33.53-52.17,60.5a102.4,102.4,0,0,1-9,11.71.73.73,0,0,1-.56.25.72.72,0,0,1-.4-.12.75.75,0,0,1-.28-.93c15.85-35.63,40-67.27,76.08-99.59a.77.77,0,0,1,.6-.19A.8.8,0,0,1,253,52.62Zm-9.17-9.84c2.51.09,5,1.92,8.15,5.92a.76.76,0,0,1-.09,1c-24.59,22.11-44,44-59.4,67.05a.74.74,0,0,1-.62.34.76.76,0,0,1-.33-.08l-1.2-.58A.73.73,0,0,1,190,116a.76.76,0,0,1,.06-.59q1.47-2.64,2.89-5.3c2.07-3.82,4.2-7.78,6.55-11.53C209.8,82.12,222.06,63.18,237,46.79,239.62,43.9,241.66,42.7,243.87,42.78Zm-6.53-1a.75.75,0,0,1,.47.52.73.73,0,0,1-.16.69,366.77,366.77,0,0,0-55.43,83.88.7.7,0,0,1-.44.38.59.59,0,0,1-.23,0,.85.85,0,0,1-.35-.08l-1.3-.68a.75.75,0,0,1-.37-.89c.26-.84.51-1.68.75-2.53a50.24,50.24,0,0,1,1.82-5.48,440.22,440.22,0,0,1,35.46-67.13c.82-1.28,1.77-2.5,2.68-3.68l.61-.79C226.85,38.21,227.16,38.13,237.34,41.77ZM214.08,30.9c2.35-.8,5.11.41,8.8,2.62a17.35,17.35,0,0,1,1.79,1.27c.34.27.73.56,1.18.9a.74.74,0,0,1,.11,1.1C215.48,48.41,207.74,62,200.26,75.21c-3.48,6.11-7.07,12.43-10.9,18.5a.73.73,0,0,1-.63.35.8.8,0,0,1-.34-.07.77.77,0,0,1-.37-.94q3-8,6-15.92c4.85-13,9.86-26.43,15.07-39.54C210.67,33.5,212.13,31.56,214.08,30.9Zm-68.86-3.19c.69-5.16,2.77-7,8.3-9.55a.75.75,0,0,1,.74.06.73.73,0,0,1,.32.66l-5.36,86.44a.73.73,0,0,1-.56.67.58.58,0,0,1-.19,0,.72.72,0,0,1-.62-.34l-.15-.18a3.87,3.87,0,0,1-.91-1.57C141.74,82,141.24,57.76,145.22,27.71ZM103,17.3l1.13-1.16a.8.8,0,0,1,.53-.23.82.82,0,0,1,.54.22c.9.91,1.95,1.78,3,2.63,2.28,1.92,4.64,3.91,5.85,6.48,5.87,12.35,11.47,25.08,16.88,37.4q2.94,6.67,5.9,13.35a.75.75,0,0,1-.37,1l-1.49.7a.71.71,0,0,1-.32.07.73.73,0,0,1-.66-.4L102.86,18.17A.76.76,0,0,1,103,17.3ZM78.22,19.81a.75.75,0,0,1,.52-.46c4.52-1.12,7.81-1,10.25,3.09Q99.15,39.5,109.35,56.53c9.37,15.66,19.06,31.85,28.53,47.82a71.06,71.06,0,0,1,4.11,8.7c.57,1.36,1.13,2.72,1.74,4a.77.77,0,0,1-.24.92l-.57.41a.71.71,0,0,1-.44.15h-.14a.77.77,0,0,1-.49-.33L78.29,20.49A.75.75,0,0,1,78.22,19.81Zm-8.54,8.35,5.08-5.57a.73.73,0,0,1,1-.08c2.69,2.11,19.49,27.45,34,50.1,5,7.9,30.3,47.6,31.25,52.49a.75.75,0,0,1-.51.85.59.59,0,0,1-.23,0,.76.76,0,0,1-.68-.43c-9.63-20.65-24.33-38.09-38.54-54.95C90,57.53,78.6,44,69.59,29.05A.74.74,0,0,1,69.68,28.16Zm-5.12,4c.55-.7,1.11-1.43,1.64-2.22a.8.8,0,0,1,.63-.32.75.75,0,0,1,.62.34C76.51,43.9,87.18,56.89,97.51,69.44c16.2,19.71,33,40.08,43.94,64.7a.75.75,0,0,1-.69,1.05.73.73,0,0,1-.6-.3l-4.69-6.44c-3.14-4.31-6.09-8.38-9-12.45-14.19-19.6-28-36-42.35-50.22-4.93-4.89-9.42-10.35-13.77-15.63-2.23-2.7-4.52-5.49-6.85-8.16C60,38.05,62.24,35.2,64.56,32.17Zm-5.2,9.69a.76.76,0,0,1,.58-.41.79.79,0,0,1,.67.27c8,9.81,16.74,19.32,25.15,28.52,16.83,18.41,34.23,37.44,47.18,59.67a.75.75,0,0,1-.21,1,.73.73,0,0,1-.44.15.77.77,0,0,1-.56-.25c-2.64-2.92-5.26-5.87-7.88-8.81-5.73-6.45-11.65-13.11-17.78-19.36-14.14-14.43-28.94-29-44-43.4C55.34,52.79,54.68,51.25,59.36,41.86ZM21.23,113.94a83.58,83.58,0,0,1,31,9.74c9.53,5.12,19.08,10.57,28.32,15.84q6,3.42,12,6.84a.72.72,0,0,1,.35.45.75.75,0,0,1-.07.57l-.7,1.22a.73.73,0,0,1-.65.37.65.65,0,0,1-.27-.05c-7.86-3.06-15.6-6.84-23.09-10.5C51.23,130.15,33.74,121.6,13.7,120.9a.75.75,0,0,1-.56-.28A.74.74,0,0,1,13,120C13.88,115.32,16.42,113.44,21.23,113.94Zm49.28,44.11-1.24.1c-5.17.4-10.39.8-15.59.8-10.11,0-20.11-1.53-29.37-7.61a.76.76,0,0,1,.41-1.38c17.92-.17,32.51,1.94,46,6.63a.75.75,0,0,1-.19,1.46Zm13.37-1.37a.75.75,0,0,1-.31.5.76.76,0,0,1-.43.14H83c-.59-.12-1.18-.21-1.78-.3a18.44,18.44,0,0,1-4-.93c-17-6.76-34.8-8.16-51.52-8.67-7.24-.22-11-3.16-13.27-10.49a.73.73,0,0,1,.12-.67.79.79,0,0,1,.61-.3c19.58.41,37.45,6.91,54.74,13.18,5.12,1.86,10.42,3.79,15.66,5.51a.75.75,0,0,1,.5.82Zm13.31-1.35-.55.92a.75.75,0,0,1-.64.36.67.67,0,0,1-.24,0c-2.83-1-5.66-1.9-8.49-2.84-6.18-2-12.57-4.17-18.8-6.44C51.1,141,33.14,134.39,13.83,134a4.62,4.62,0,0,1-3.47-1.24,4.67,4.67,0,0,1-1.06-3.54c0-2,.21-3.83,1.47-5a4.12,4.12,0,0,1,3.19-.89l3,.2a64.39,64.39,0,0,1,12.9,1.67,159.88,159.88,0,0,1,22.61,8c10.23,4.54,20.5,9.45,30.44,14.19q6,2.87,12,5.71c.5.24,1,.52,1.42.79l.62.36a.76.76,0,0,1,.27,1Zm16.44-.79a.75.75,0,0,1-.65.39.67.67,0,0,1-.31-.07c-.78-.34-1.58-.67-2.37-1a42.83,42.83,0,0,1-5.21-2.4c-6.21-3.59-12.5-7.28-18.58-10.86Q78.6,136,70.68,131.35C55,122.28,39.44,114,20.7,111.84a.76.76,0,0,1-.6-.44.73.73,0,0,1,.08-.74c3.55-4.93,7.13-6.2,11.62-4.13,2.79,1.29,5.69,2.52,8.49,3.7a144.57,144.57,0,0,1,16.83,8c16.48,9.68,33.83,20.57,56.27,35.31A.75.75,0,0,1,113.63,154.54Zm7.36-2.09-.59.92a.75.75,0,0,1-1,.24l-4.8-2.73c-3.48-2-7.07-4-10.53-6.11-4.83-3-9.7-6.05-14.42-9-9-5.66-18.25-11.53-27.61-16.88a266.68,266.68,0,0,0-29.59-14c-3.5-1.47-5.56-2.7-4.63-7.41.71-3.61,1.26-5.86,2.86-6.67s3.48-.07,6.86,1.54a86.39,86.39,0,0,1,13.79,8.23c13.11,9.52,26.37,19.31,39.2,28.77L108,142.21c2.89,2.12,5.81,4.22,8.73,6.32l4,2.91A.74.74,0,0,1,121,152.45Zm19.26,10.81a.78.78,0,0,1-.56.25.77.77,0,0,1-.44-.14c-11.62-8.38-23-17.19-34-25.71-23.06-17.83-46.91-36.28-73-50.7a.71.71,0,0,1-.36-.48.73.73,0,0,1,.1-.59c1-1.5,1.71-2.77,2.29-3.8,2.88-5.09,3.61-4.69,12.62.27l.17.09a64.84,64.84,0,0,1,11.38,7.47c23.07,20,46.41,40.42,69,60.19l8.47,7.42a26.09,26.09,0,0,1,2.61,2.75c.51.58,1.07,1.23,1.75,2A.76.76,0,0,1,140.25,163.26Zm4.26-3-1,.81a.74.74,0,0,1-.49.18.73.73,0,0,1-.51-.21C114,133.86,80.42,102.71,43.13,77a.74.74,0,0,1-.33-.62.77.77,0,0,1,.34-.62c.58-.39,1.16-.8,1.75-1.22a39.49,39.49,0,0,1,4.36-2.79c3.76-2,7-1.55,9.93,1.29,8.45,8.19,17.08,16.48,25.42,24.5,14.17,13.62,28.81,27.7,43.06,41.71a148.12,148.12,0,0,1,11.76,13.59c1.68,2.11,3.42,4.29,5.18,6.38A.77.77,0,0,1,144.51,160.25Zm1.93-4.14a.72.72,0,0,1-.48.17.75.75,0,0,1-.55-.24c-2.72-2.94-5.46-6-8.1-8.9-5.83-6.45-11.86-13.13-18.15-19.31C105.12,114,90.61,100.27,76.57,87L63.3,74.34c-3.67-3.5-5.31-8-6.9-12.4-.38-1-.76-2.1-1.17-3.15a.75.75,0,0,1,1.17-.86c32.1,26.23,61.6,58,90.17,97.16A.76.76,0,0,1,146.44,156.11Zm5.09-31-1.51.69a.7.7,0,0,1-.31.07.72.72,0,0,1-.29-.06.74.74,0,0,1-.41-.42c-11.09-28.86-27.71-55.25-43.78-80.78-4.87-7.74-9.91-15.75-14.72-23.71a.75.75,0,0,1,.32-1.07c7.2-3.3,8.25-3.47,11.74,3.24,12.88,24.68,28.07,54,43.2,83.83a76.12,76.12,0,0,1,4.39,11.8c.56,1.81,1.14,3.68,1.77,5.48A.76.76,0,0,1,151.53,125.12Zm1.06-11.88c0-4.51-.05-9.1-.1-13.54-.11-10.11-.23-20.56.25-30.82.61-13.15,2-26.47,3.31-39.35.25-2.48.51-5,.76-7.44,1.09-10.87,5.91-16.6,15.61-18.58a.77.77,0,0,1,.74.26.78.78,0,0,1,.1.78c-3.88,8.74-7.87,19.21-8.13,30.72l1,.23q.48-2.25.93-4.5c.8-3.93,1.63-8,2.82-11.91s2.82-7.84,4.37-11.6c.68-1.66,1.37-3.33,2-5a.75.75,0,0,1,1-.42c4.53,1.76,6.67,2.84,7.38,4.64.64,1.63,0,3.51-1.49,6.62-14.61,30.49-18.68,63.77-20.9,95.19-.66,9.38-1.6,18-2.87,26.18a.75.75,0,0,1-.74.63h-.06a.74.74,0,0,1-.69-.75c0-3.23,0-6.46-.08-9.7-.09-7.27-.18-14.8.2-22.18.56-11,1.94-22.2,3.19-31.85.34-2.6.72-5.21,1.1-7.81.31-2.16.62-4.33.91-6.5.24-1.78.54-3.56.82-5.29s.55-3.43.78-5.14c.13-.91.25-1.82.35-2.73.08-.69.49-1.92,0-2.51-1.77,1-2,4.65-2.29,6.34l-.11.68c-.24,1.3-.39,2.64-.54,4-.18,1.56-.37,3.19-.69,4.77-1.31,6.37-2.14,12.89-2.95,19.19s-1.41,13-1.94,18.85l-.19,2a114.9,114.9,0,0,1-2.32,16.74.76.76,0,0,1-.82.57A.76.76,0,0,1,152.59,113.24Zm10.35,67.62c-3.52,30.54-1.59,61.56.27,91.56q.39,6.25.76,12.52l.09,1.27a31.28,31.28,0,0,1-.05,6.84,6.89,6.89,0,0,1-1.84,3.21c-.34.42-.66.8-.93,1.2a.75.75,0,0,1-.58.32h0a.74.74,0,0,1-.57-.27c-.34-.4-.76-.8-1.2-1.23-1.06-1-2.15-2.06-2.25-3.35-.46-5.94-.47-12-.49-17.86v-.65q0-12.14,0-24.26c0-17.24,0-35.07-.19-52.6A59.27,59.27,0,0,0,154.2,186c-.38-1.77-.78-3.59-1.09-5.4a.75.75,0,0,1,.47-.83l1.07-.4c.89-.34,1.9-.71,2.86-1.12.8-.34,1.6-.74,2.37-1.13l1.07-.53a.75.75,0,0,1,.64,0,.74.74,0,0,1,.41.49c.1.34.24.7.37,1A6,6,0,0,1,162.94,180.86Zm2.66-65.45a.74.74,0,0,1-.74-.62C161.15,93.7,175,29.42,187.66,9a.74.74,0,0,1,.49-.34.79.79,0,0,1,.58.11l4,2.76a.77.77,0,0,1,.28.88,565.93,565.93,0,0,0-26.67,102.38.75.75,0,0,1-.74.63Zm2.8,11.4a.77.77,0,0,1-.36.09.67.67,0,0,1-.24,0l-1.56-.51a.75.75,0,0,1-.5-.87q2.07-9.58,4.08-19.19c3.2-15.12,6.5-30.76,10.12-46.06,2-8.6,4.73-17.17,7.34-25.46,1-3.17,2-6.34,3-9.52a53.64,53.64,0,0,1,3.09-8c1.13-2.3,2.22-3.94,3.85-4.5,1.78-.6,3.9.15,6.95,1.66a.76.76,0,0,1,.34,1c-16.29,34.26-25.81,70.51-35.72,110.93A.76.76,0,0,1,168.4,126.81Zm2,13.69a.74.74,0,0,1-.71.51.57.57,0,0,1-.18,0,.75.75,0,0,1-.56-.85,529.86,529.86,0,0,1,35.66-121,.74.74,0,0,1,1.24-.2c6.38,7.12,6.49,7.68,2.91,14.9a179.76,179.76,0,0,0-7.78,17.76c-6.36,17.28-13.85,37.83-21.21,59.12-1.79,5.18-3.4,10.53-5,15.7C173.37,131.07,171.93,135.84,170.36,140.5Z"/></svg>