<svg width="20" height="20" viewBox="0 0 20 20" fill="none" xmlns="http://www.w3.org/2000/svg">
<path d="M19.1921 9.19214H0.807891C0.361719 9.19214 0 9.55382 0 10C0 10.4462 0.361719 10.8079 0.807891 10.8079H19.1921C19.6383 10.8079 20 10.4462 20 10C20 9.55386 19.6383 9.19214 19.1921 9.19214Z" fill="#044700"/>
<path d="M19.1921 3.06396H0.807891C0.361719 3.06396 0 3.42568 0 3.87186C0 4.31803 0.361719 4.67975 0.807891 4.67975H19.1921C19.6383 4.67975 20 4.31803 20 3.87186C20 3.42568 19.6383 3.06396 19.1921 3.06396Z" fill="#044700"/>
<path d="M19.1921 15.3203H0.807891C0.361719 15.3203 0 15.682 0 16.1282C0 16.5744 0.361719 16.9361 0.807891 16.9361H19.1921C19.6383 16.9361 20 16.5744 20 16.1282C20 15.682 19.6383 15.3203 19.1921 15.3203Z" fill="#044700"/>
</svg>
