<svg width="28" height="28" viewBox="0 0 28 28" fill="none" xmlns="http://www.w3.org/2000/svg">
<path d="M14 8.3125C10.8336 8.3125 8.25781 10.8883 8.25781 14.0547C8.25781 17.2211 10.8336 19.7969 14 19.7969C17.1664 19.7969 19.7422 17.2211 19.7422 14.0547C19.7422 10.8883 17.1664 8.3125 14 8.3125ZM14 8.3125C10.8336 8.3125 8.25781 10.8883 8.25781 14.0547C8.25781 17.2211 10.8336 19.7969 14 19.7969C17.1664 19.7969 19.7422 17.2211 19.7422 14.0547C19.7422 10.8883 17.1664 8.3125 14 8.3125ZM23.8984 0H4.10156C1.8375 0 0 1.8375 0 4.10156V23.8984C0 26.1625 1.8375 28 4.10156 28H23.8984C26.1625 28 28 26.1625 28 23.8984V4.10156C28 1.8375 26.1625 0 23.8984 0ZM14 21.4375C9.9313 21.4375 6.61719 18.1234 6.61719 14.0547C6.61719 9.98588 9.9313 6.67188 14 6.67188C18.0687 6.67188 21.3828 9.98588 21.3828 14.0547C21.3828 18.1234 18.0687 21.4375 14 21.4375ZM23.0234 6.67188C22.1211 6.67188 21.3828 5.93359 21.3828 5.03125C21.3828 4.12891 22.1211 3.39062 23.0234 3.39062C23.9258 3.39062 24.6641 4.12891 24.6641 5.03125C24.6641 5.93359 23.9258 6.67188 23.0234 6.67188ZM14 8.3125C10.8336 8.3125 8.25781 10.8883 8.25781 14.0547C8.25781 17.2211 10.8336 19.7969 14 19.7969C17.1664 19.7969 19.7422 17.2211 19.7422 14.0547C19.7422 10.8883 17.1664 8.3125 14 8.3125ZM14 8.3125C10.8336 8.3125 8.25781 10.8883 8.25781 14.0547C8.25781 17.2211 10.8336 19.7969 14 19.7969C17.1664 19.7969 19.7422 17.2211 19.7422 14.0547C19.7422 10.8883 17.1664 8.3125 14 8.3125ZM14 8.3125C10.8336 8.3125 8.25781 10.8883 8.25781 14.0547C8.25781 17.2211 10.8336 19.7969 14 19.7969C17.1664 19.7969 19.7422 17.2211 19.7422 14.0547C19.7422 10.8883 17.1664 8.3125 14 8.3125Z" fill="#044700"/>
</svg>
