<svg width="28" height="28" viewBox="0 0 28 28" fill="none" xmlns="http://www.w3.org/2000/svg">
<path d="M17.0063 10.7625V15.2063C17.0063 15.3188 16.9188 15.4063 16.8063 15.4063H16.0938C16.025 15.4063 15.9625 15.3688 15.9313 15.325L13.8938 12.575V15.2125C13.8938 15.325 13.8063 15.4125 13.6938 15.4125H12.9813C12.8688 15.4125 12.7813 15.325 12.7813 15.2125V10.7688C12.7813 10.6563 12.8688 10.5688 12.9813 10.5688H13.6875C13.75 10.5688 13.8188 10.6 13.85 10.6563L15.8875 13.4063V10.7688C15.8875 10.6563 15.975 10.5688 16.0875 10.5688H16.8C16.9125 10.5625 17.0063 10.6563 17.0063 10.7625ZM11.8813 10.5625H11.1688C11.0563 10.5625 10.9688 10.65 10.9688 10.7625V15.2063C10.9688 15.3188 11.0563 15.4063 11.1688 15.4063H11.8813C11.9938 15.4063 12.0813 15.3188 12.0813 15.2063V10.7625C12.0813 10.6563 11.9938 10.5625 11.8813 10.5625ZM10.1625 14.2875H8.21877V10.7625C8.21877 10.65 8.13127 10.5625 8.01877 10.5625H7.30626C7.19376 10.5625 7.10626 10.65 7.10626 10.7625V15.2063C7.10626 15.2625 7.12501 15.3063 7.16251 15.3438C7.20001 15.375 7.24376 15.4 7.30001 15.4H10.1563C10.2688 15.4 10.3563 15.3125 10.3563 15.2V14.4875C10.3563 14.3813 10.2688 14.2875 10.1625 14.2875ZM20.7563 10.5625H17.9C17.7938 10.5625 17.7 10.65 17.7 10.7625V15.2063C17.7 15.3125 17.7875 15.4063 17.9 15.4063H20.7563C20.8688 15.4063 20.9563 15.3188 20.9563 15.2063V14.4938C20.9563 14.3813 20.8688 14.2938 20.7563 14.2938H18.8125V13.5438H20.7563C20.8688 13.5438 20.9563 13.4563 20.9563 13.3438V12.625C20.9563 12.5125 20.8688 12.425 20.7563 12.425H18.8125V11.675H20.7563C20.8688 11.675 20.9563 11.5875 20.9563 11.475V10.7625C20.95 10.6563 20.8625 10.5625 20.7563 10.5625ZM28 5.10626V22.9375C27.9938 25.7375 25.7 28.0063 22.8938 28H5.06251C2.26251 27.9938 -0.00623712 25.6938 1.28823e-05 22.8938V5.06251C0.00626288 2.26251 2.30626 -0.00623712 5.10626 1.28823e-05H22.9375C25.7375 0.00626288 28.0063 2.30001 28 5.10626ZM24.15 12.7688C24.15 8.20626 19.575 4.49376 13.9563 4.49376C8.33752 4.49376 3.76251 8.20626 3.76251 12.7688C3.76251 16.8563 7.38752 20.2813 12.2875 20.9313C13.4813 21.1875 13.3438 21.625 13.075 23.2313C13.0313 23.4875 12.8688 24.2375 13.9563 23.7813C15.0438 23.325 19.825 20.325 21.9688 17.8625C23.4438 16.2375 24.15 14.5938 24.15 12.7688Z" fill="white"/>
</svg>
