<svg width="28" height="28" viewBox="0 0 28 28" fill="none" xmlns="http://www.w3.org/2000/svg">
<g clip-path="url(#clip0_211_197)">
<path d="M14 0.583252C6.2825 0.583252 0 5.71425 0 12.0201C0 17.6679 4.98166 22.3999 11.7075 23.2994C12.1637 23.3963 12.7843 23.6028 12.9418 23.9924C13.0818 24.3459 13.034 24.8919 12.9862 25.2606L12.7948 26.4576C12.7423 26.8111 12.5148 27.8494 14.0187 27.2148C15.5248 26.5824 22.0873 22.4268 25.0273 19.0259C27.0387 16.8093 28 14.5378 28 12.0201C28 5.71425 21.7175 0.583252 14 0.583252ZM8.52016 15.7698H5.7365C5.334 15.7698 5.0015 15.4349 5.0015 15.0313V9.43009C5.0015 9.02525 5.334 8.69042 5.7365 8.69042C6.1425 8.69042 6.4715 9.02525 6.4715 9.43009V14.2916H8.52016C8.92616 14.2916 9.254 14.6241 9.254 15.0313C9.254 15.4349 8.925 15.7698 8.52016 15.7698ZM11.3972 15.0313C11.3972 15.4349 11.0682 15.7698 10.661 15.7698C10.2585 15.7698 9.92949 15.4349 9.92949 15.0313V9.43009C9.92949 9.02525 10.2585 8.69042 10.6645 8.69042C11.0682 8.69042 11.3972 9.02525 11.3972 9.43009V15.0313ZM18.095 15.0313C18.095 15.3486 17.892 15.6298 17.591 15.7313C17.5163 15.7558 17.4358 15.7674 17.3588 15.7674C17.1127 15.7674 16.9027 15.6613 16.7638 15.4734L13.9137 11.5791V15.0301C13.9137 15.4338 13.5882 15.7686 13.1775 15.7686C12.7738 15.7686 12.4472 15.4338 12.4472 15.0301V9.43009C12.4472 9.11275 12.649 8.83159 12.9488 8.73125C13.0188 8.70442 13.1075 8.69275 13.1752 8.69275C13.4027 8.69275 13.6127 8.81525 13.7527 8.99142L16.625 12.9009V9.43009C16.625 9.02525 16.954 8.69042 17.36 8.69042C17.7625 8.69042 18.095 9.02525 18.095 9.43009V15.0313ZM22.5925 11.4904C22.9997 11.4904 23.3275 11.8253 23.3275 12.2313C23.3275 12.6361 22.9997 12.9709 22.5925 12.9709H20.545V14.2916H22.5925C22.9997 14.2916 23.3275 14.6241 23.3275 15.0313C23.3275 15.4349 22.9997 15.7698 22.5925 15.7698H19.8088C19.4063 15.7698 19.0773 15.4349 19.0773 15.0313V9.43009C19.0773 9.02525 19.4063 8.69042 19.8123 8.69042H22.596C22.9997 8.69042 23.3275 9.02525 23.3275 9.43009C23.3275 9.83959 22.9997 10.1698 22.5925 10.1698H20.545V11.4904H22.5925Z" fill="#044700"/>
</g>
<defs>
<clipPath id="clip0_211_197">
<rect width="28" height="28" fill="white"/>
</clipPath>
</defs>
</svg>
