<svg width="12" height="12" viewBox="0 0 12 12" fill="none" xmlns="http://www.w3.org/2000/svg">
<path d="M5.28252 9.67514C4.41376 9.67514 3.56452 9.41752 2.84217 8.93487C2.11983 8.45221 1.55683 7.7662 1.22438 6.96358C0.891918 6.16095 0.804932 5.27777 0.974417 4.4257C1.1439 3.57364 1.56225 2.79097 2.17655 2.17667C2.79085 1.56237 3.57352 1.14402 4.42558 0.974539C5.27764 0.805054 6.16083 0.89204 6.96345 1.2245C7.76608 1.55696 8.45209 2.11995 8.93475 2.8423C9.4174 3.56464 9.67501 4.41388 9.67501 5.28264C9.67501 5.85947 9.5614 6.43065 9.34066 6.96358C9.11991 7.4965 8.79636 7.98072 8.38848 8.38861C7.9806 8.79649 7.49638 9.12004 6.96345 9.34078C6.43053 9.56152 5.85935 9.67514 5.28252 9.67514ZM5.28252 1.77097C4.59028 1.77097 3.91359 1.97624 3.33802 2.36083C2.76245 2.74541 2.31384 3.29204 2.04894 3.93158C1.78403 4.57112 1.71472 5.27485 1.84977 5.95379C1.98482 6.63272 2.31816 7.25636 2.80764 7.74585C3.29713 8.23533 3.92077 8.56867 4.5997 8.70372C5.27863 8.83877 5.98237 8.76946 6.62191 8.50455C7.26145 8.23964 7.80807 7.79104 8.19266 7.21547C8.57724 6.6399 8.78252 5.96321 8.78252 5.27097C8.78252 4.34271 8.41377 3.45248 7.75739 2.7961C7.10101 2.13972 6.21077 1.77097 5.28252 1.77097Z" fill="#8FA29A"/>
<path d="M10.6667 11.1043C10.6092 11.1046 10.5522 11.0934 10.4992 11.0713C10.4461 11.0493 10.3979 11.0169 10.3575 10.976L7.94835 8.56681C7.87107 8.48387 7.829 8.37418 7.831 8.26084C7.833 8.14749 7.87892 8.03935 7.95907 7.9592C8.03923 7.87904 8.14737 7.83312 8.26071 7.83112C8.37406 7.82912 8.48375 7.87119 8.56669 7.94847L10.9759 10.3576C11.0578 10.4397 11.1038 10.5509 11.1038 10.6668C11.1038 10.7827 11.0578 10.8939 10.9759 10.976C10.9355 11.0169 10.8873 11.0493 10.8342 11.0713C10.7811 11.0934 10.7242 11.1046 10.6667 11.1043Z" fill="#8FA29A"/>
</svg>
